<svg id="Layer_1" data-name="Layer 1" xmlns="http://www.w3.org/2000/svg" viewBox="0 0 256 256"><defs><style>.cls-1{fill:#dd002b;}.cls-2,.cls-3{fill:#fff;}.cls-2{opacity:0.1;}</style></defs><rect x="-8.25" y="-7.54" width="281.19" height="267.81"/><polygon class="cls-1" points="298.21 260.27 115.61 260.27 234.59 -7.54 298.21 -7.54 298.21 260.27"/><path class="cls-2" d="M190.06-12.88C195.61-9.44,201-6,202.3,1.26,204.05,11,197.86,20.2,188,21.62a64.32,64.32,0,0,1-8.9.44c-28.95.13-57.95-.83-86.84.58C44.87,25,7.87,66.93,9.78,114.32c1,24.28,10.31,44.75,27.7,61.66a49.78,49.78,0,0,0,4.08,3.44c.23.18.72,0,1.88,0v-6.24q0-30,0-59.91c0-32.91,22.64-56.49,55.57-56.83q63.95-.66,127.92,0c30.51.27,52.34,21.15,55.36,51.84,2.44,24.81-16.71,50-42.82,55.88a67.47,67.47,0,0,1-14.74,1.49q-69.92.08-139.83-.08c-2.13,0-4.27.18-6.62.28v32.9c7.12.64,14.13,1.79,21.15,1.83,38.28.19,76.56.05,114.83.16,13.67,0,22,12.71,16.37,24.59-3,6.25-8,9.91-15,9.91q-64.25,0-128.51-.34c-2.74,0-5.48-.62-9.11-1,0,8.51.17,16.74,0,25C77.65,271.77,65.37,280,53.87,275c-6.79-3-10.38-8.35-10.4-15.86,0-10.08-.23-20.17.07-30.25.14-4.48-1.19-7-5.28-9.33C-7.39,193.8-31.51,144.23-23.91,92.36-16.63,42.64,21.31,2,71.48-9.66c5.37-1.25,10.82-2.16,16.24-3.22Zm-111.93,143a8,8,0,0,0,1.34.52c49.75.06,99.5.19,149.25,0,7.19,0,12.82-3.74,16.21-10.3,7-13.47-1.42-28.43-16.69-29.05-12.07-.5-24.17-.15-36.26-.15-30.93,0-61.85-.11-92.77,0-11.56,0-20.2,7.21-21,17.62C77.71,115.87,78.13,123,78.13,130.16Z"/><path class="cls-3" d="M167.75,223.52a1.63,1.63,0,0,1,.93,1.08,1.31,1.31,0,0,1-1.09,1.56,5.08,5.08,0,0,1-.68,0c-2.22,0-4.44-.06-6.65.05A6.81,6.81,0,0,0,156.07,238c.09.09.2.17.31.26h.14v-5.06a4.15,4.15,0,0,1,4.26-4.35c3.26,0,6.53,0,9.79,0a4.17,4.17,0,0,1,1,8.25,6.1,6.1,0,0,1-1.13.12H159.7l-.51,0v2.52c.54.05,1.08.14,1.62.14h8.79a1.3,1.3,0,0,1,1.25,1.88,1.2,1.2,0,0,1-1.14.76l-9.84,0c-.21,0-.42-.05-.7-.08,0,.65,0,1.28,0,1.91a1.32,1.32,0,0,1-1.85,1.23,1.25,1.25,0,0,1-.8-1.21c0-.77,0-1.55,0-2.32a.67.67,0,0,0-.41-.71,9.49,9.49,0,0,1,2.55-17.55c.41-.09.83-.16,1.24-.24Zm-8.57,10.95.1,0c3.81,0,7.62,0,11.43,0a1.36,1.36,0,0,0,1.24-.79,1.48,1.48,0,0,0-1.28-2.22c-.92,0-1.85,0-2.78,0q-3.54,0-7.1,0a1.49,1.49,0,0,0-1.6,1.34C159.15,233.37,159.18,233.92,159.18,234.47Z"/><path class="cls-3" d="M172.21,223.52a1.42,1.42,0,0,1,1.12,1.32,1.36,1.36,0,0,1-1.12,1.39,1.38,1.38,0,0,1-1.51-.9,1.35,1.35,0,0,1,.72-1.67l.34-.14Z"/><path class="cls-3" d="M220.18,237.67v4.17h-2V230.9h1.66l.32,1,.18-.16a2.61,2.61,0,0,1,4.42.48,5.52,5.52,0,0,1,0,5,2.7,2.7,0,0,1-4.35.69Zm0-3a13.19,13.19,0,0,0,.27,1.48,1.22,1.22,0,0,0,1.26.85,1.16,1.16,0,0,0,1.2-.79,4.27,4.27,0,0,0,0-3,1.36,1.36,0,0,0-2.51.1A12.23,12.23,0,0,0,220.17,234.62Z"/><path class="cls-3" d="M234.36,230.87c.72,0,1.38,0,2,0,.12,0,.28.18.33.32.56,1.64,1.1,3.28,1.65,4.93.07-.24.14-.52.22-.79.45-1.38.92-2.76,1.36-4.14.08-.26.19-.36.47-.35.6,0,1.21,0,1.87,0-.06.2-.11.36-.17.51l-2.95,7.84-.2.51a3.33,3.33,0,0,1-4.15,2v-1.59l.79,0a1.84,1.84,0,0,0,1.72-1.68,1.06,1.06,0,0,0-.12-.43c-.88-2.21-1.77-4.41-2.65-6.61Z"/><path class="cls-3" d="M231.35,237.49a2.83,2.83,0,0,1-2.45,1.15,2.21,2.21,0,0,1-2.44-2.45,1.92,1.92,0,0,1,1.51-2.06,17.86,17.86,0,0,1,2.74-.36c.53-.05.57-.05.49-.58a1,1,0,0,0-1.32-.92c-.67.09-1.32.29-2,.45l-.68-1.36c.55-.18,1.07-.38,1.6-.51a5.48,5.48,0,0,1,2.7,0,2.21,2.21,0,0,1,1.81,2.21c.05,1.74,0,3.48,0,5.22a.86.86,0,0,1,0,.17l-.1,0a2.84,2.84,0,0,1-1.17,0C231.71,238.32,231.58,237.87,231.35,237.49Zm-.21-2.5a5.14,5.14,0,0,0-.68,0,6.67,6.67,0,0,0-1.27.27,1,1,0,0,0-.56,1.22c.1.42.42.63,1,.64A1.55,1.55,0,0,0,231.14,235Z"/><path class="cls-3" d="M187.74,227.9h1.1V232a2.57,2.57,0,0,1,1.93-1.1,6,6,0,0,1,1.74.16,2,2,0,0,1,1.46,2.12c0,1.73,0,3.47,0,5.25h-1.12V238c0-1.33,0-2.66,0-4a2.43,2.43,0,0,0-.08-.9,2,2,0,0,0-.59-1,2.15,2.15,0,0,0-3.19,1.24,7.3,7.3,0,0,0-.13,1.4c0,1.22,0,2.44,0,3.7h-1.13Z"/><path class="cls-3" d="M212,234.59l2.66-2.86c.75-.8.75-.8,2-.67l-3,3.15,3.25,4.29c-.48,0-.87,0-1.25,0-.13,0-.27-.17-.36-.29-.72-.94-1.42-1.88-2.13-2.83l-.28-.35a1.38,1.38,0,0,0-.88,1.47,16.27,16.27,0,0,1,0,2h-1.12V227.9H212Z"/><path class="cls-3" d="M202.29,235h-5.06a2.23,2.23,0,0,0,1.84,2.65,5.52,5.52,0,0,0,2.42-.27l.47-.16c.06,1.18.2,1-.85,1.27a6.63,6.63,0,0,1-2.39.11,3,3,0,0,1-2.59-2.36,5.28,5.28,0,0,1,.12-3.17,3.08,3.08,0,0,1,3.45-2.12,2.94,2.94,0,0,1,2.59,3C202.31,234.22,202.29,234.57,202.29,235Zm-1.23-.92c.06-1.39-.67-2.21-1.88-2.19a2,2,0,0,0-2,2.19Z"/><path class="cls-3" d="M186.1,231.22l-.36,1c-.37-.09-.71-.19-1.07-.25a2.09,2.09,0,0,0-2.75,1.93A6.53,6.53,0,0,0,182,236a1.93,1.93,0,0,0,2.25,1.59c.57,0,1.13-.2,1.69-.3.06,1.08.2,1-.9,1.21a5,5,0,0,1-1.81,0,2.89,2.89,0,0,1-2.43-2.39,5.94,5.94,0,0,1,0-2.75,3.25,3.25,0,0,1,3.9-2.5C185.16,231,185.61,231.11,186.1,231.22Z"/><path class="cls-3" d="M209.09,237.33s0,0,0,0c0,1,.24,1-.91,1.2a5,5,0,0,1-1.81,0A2.89,2.89,0,0,1,204,236.2a5.77,5.77,0,0,1,0-2.83,3.23,3.23,0,0,1,3.88-2.46c.46.07.91.2,1.4.31l-.36,1c-.36-.09-.71-.19-1.06-.25a2.1,2.1,0,0,0-2.76,1.93,6.54,6.54,0,0,0,.08,2.16,1.93,1.93,0,0,0,2.25,1.59C208,237.58,208.52,237.43,209.09,237.33Z"/><path class="cls-3" d="M151.88,244.3a1.34,1.34,0,0,1,2.67,0,1.34,1.34,0,1,1-2.67,0Z"/><path class="cls-3" d="M34.46,111.5a7.24,7.24,0,0,0-7.27,7.2v30.54a7.23,7.23,0,0,0,7.27,7.2H65.29a7.23,7.23,0,0,0,7.26-7.2v-.31c-.13-.06-11.79-4.87-17.71-7.69-4,4.87-9.15,7.82-14.5,7.82-9.05,0-12.12-7.84-7.84-13a9.09,9.09,0,0,1,5-2.8c3.86-.94,10,.59,15.76,2.47a31.4,31.4,0,0,0,2.55-6.19H38.06v-1.78h9.15v-3.19H36.13v-1.78H47.21v-4.55a.76.76,0,0,1,.78-.77h4.47v5.32h11v1.78h-11v3.19H61.4a35.79,35.79,0,0,1-3.78,9.47c2.71,1,5.15,1.9,7,2.5a53.21,53.21,0,0,0,8,2.28V118.7a7.23,7.23,0,0,0-7.26-7.2Zm5,24.35c-.39,0-.78,0-1.17.06a9,9,0,0,0-4.42,1.63c-3.49,3-1.4,8.52,5.65,8.52,4.1,0,8.2-2.6,11.42-6.76-4.15-2-7.72-3.49-11.48-3.45Z"/><path class="cls-3" d="M151.44,143l-2,4.37L147.36,143h-2l3.13,6v4.21h1.84V149l3.12-6Zm-14.82,2.64,1.42,4.25h-2.9Zm1.86,5.55.69,2.06h1.93L137.3,143h-1.47L132,153.25H134l.72-2.06Zm-14.4-3.29h-2v-3.51h2a1.69,1.69,0,0,1,1.64,1.76,1.66,1.66,0,0,1-1.64,1.75m.1-4.9h-4v10.25H122v-3.94h2.15a3.16,3.16,0,1,0,0-6.31m-13.39,10.25h1.86V143h-1.86ZM97.73,143v10.25H104v-1.4H99.59V143Zm-10.57,2.64,1.43,4.25H85.68ZM89,151.19l.69,2.06h1.92L87.84,143H86.37l-3.79,10.25h1.93l.72-2.06ZM102.09,123h-8v-2.83h9.23v-1.77H94.13v-3.59H90a.83.83,0,0,0-.82.84v2.75H80v1.77H89.2V123H81.46v1.76H96.87S96,128,91.79,131.59a19.31,19.31,0,0,1-5.05-5.11H82.6a23,23,0,0,0,6.61,7,35.92,35.92,0,0,1-9.34,4.15v2.12a41.92,41.92,0,0,0,12-4.58,43.15,43.15,0,0,0,11.8,4.58v-2a49.38,49.38,0,0,1-9.13-4.33A19.17,19.17,0,0,0,102.09,123M128,115.12h-4.15v4.3H113.6v1.73h10.21v15.47a.71.71,0,0,1-.67.65H121v1.79h5.37a1.62,1.62,0,0,0,1.55-1.6V121.15h1.68v-1.73H128Zm-8.74,8.95a.91.91,0,0,0-.82-.52h-3.46l2.69,8.41h4.09ZM109,114.91l-4.76,11.17h3.65v13.3h4V121.74h-1.45l3-6.83Zm46.24,23.86-1.45-4.89a.77.77,0,0,0-.72-.54h-3.87l1.12,3.76H145.8v-7.28h8.92v-1.73H145.8v-3.42h8.92v-1.74H132.47v1.74h8.92v3.42h-8.92v1.73h8.92v7.28h-8.92v1.73h22.79l0-.06Zm-18.15-20h13v2.56h4.64v-3a1.23,1.23,0,0,0-1.2-1.24H146v-2.38h-4.85v2.38h-8.7v4.29h4.64Z"/><path class="cls-3" d="M44.61,61.51a1.56,1.56,0,0,1-.72.17,1.58,1.58,0,0,1-1.39-.82l-.1-.22L38,51.07a.8.8,0,0,1,1.2-1l5.14,3.67a2.46,2.46,0,0,0,1.31.39,2.48,2.48,0,0,0,.82-.15L70.7,43.23c-4.33-5.11-11.48-8.45-19.56-8.45-13.23,0-23.95,8.93-23.95,20,0,6,3.23,11.42,8.28,15.08a1.6,1.6,0,0,1,.67,1.3,1.76,1.76,0,0,1-.09.51l-1.08,4a2.22,2.22,0,0,0-.13.58.8.8,0,0,0,.8.8.9.9,0,0,0,.46-.15l5.25-3a2.57,2.57,0,0,1,1.27-.37,2.33,2.33,0,0,1,.7.11,28.52,28.52,0,0,0,7.82,1.09c13.23,0,24-8.93,24-19.95a17.26,17.26,0,0,0-2.73-9.25L44.79,61.41Z"/><path class="cls-3" d="M82,62.76h.2a.47.47,0,0,1,.46.35.67.67,0,0,1,.07.24,19.46,19.46,0,0,0,.52,2c0,.14.09.27.13.4a1.07,1.07,0,0,1,.07.19,10.33,10.33,0,0,0,.43,1.51c.1.28.18.57.27.85,0,0,0,.09,0,.13.14.55.27,1.09.41,1.64a1.12,1.12,0,0,0,.08.26.14.14,0,0,0,.27,0,3,3,0,0,0,.11-.32l.15-.48c.05-.17.11-.34.16-.51l.15-.48c.08-.26.16-.51.23-.77s.1-.29.14-.43l.18-.68c.05-.2.09-.4.15-.6s.17-.57.26-.85c0,0,0-.06,0-.09.19-.49.37-1,.55-1.49a3.57,3.57,0,0,0,.11-.47.44.44,0,0,1,.47-.43,4.68,4.68,0,0,1,.53,0,.34.34,0,0,1,.36.32c.13.56.25,1.12.37,1.68,0,.13.08.26.12.4s.16.57.25.86l.12.43c.07.26.15.52.23.78s.1.28.15.42a1.72,1.72,0,0,1,.11.29c.1.65.44,1.24.48,1.9a.19.19,0,0,0,0,.08c0,.13.06.29.21.29A.42.42,0,0,0,90.9,70a1.34,1.34,0,0,0,.16-.45,3,3,0,0,1,.27-.88.75.75,0,0,0,0-.16c.15-.59.29-1.18.45-1.76s.29-1,.47-1.5a15.1,15.1,0,0,0,.61-1.83,2.06,2.06,0,0,1,.12-.35.52.52,0,0,1,.49-.35H94a.27.27,0,0,1,.27.36c0,.11,0,.22-.08.33-.18.48-.36,1-.53,1.44a.14.14,0,0,0,0,.06c-.17.5-.33,1-.49,1.52l-.15.45c-.06.2-.13.41-.2.61l-.57,1.61s0,0,0,0c-.17.52-.33,1-.49,1.55l-.15.51c-.07.26-.14.53-.2.79s0,.26-.09.38a.6.6,0,0,1-.59.44h-.34c-.23,0-.33-.07-.39-.29a7,7,0,0,1-.36-1.26.6.6,0,0,0-.06-.19,4.68,4.68,0,0,1-.34-1.1c0-.11-.07-.21-.1-.32S89,69.26,89,69c-.09-.37-.17-.73-.25-1.1,0-.13-.06-.27-.1-.41l-.21-.72c-.05-.17-.1-.34-.14-.51s-.1-.42-.16-.63a.7.7,0,0,0-.15-.23.2.2,0,0,0-.35.06,1.24,1.24,0,0,0-.09.33,2.06,2.06,0,0,1-.24.8,1.29,1.29,0,0,0-.07.21,3,3,0,0,1-.32.92,1.31,1.31,0,0,0-.1.32l-.57,1.73,0,.08-.47,1.76c0,.19-.12.37-.18.56s-.08.21-.11.31a.4.4,0,0,1-.44.32H84.7a.56.56,0,0,1-.57-.41A3.45,3.45,0,0,1,84,72a2.8,2.8,0,0,0-.06-.28c-.16-.53-.33-1.07-.5-1.6l0-.05c-.17-.64-.35-1.28-.52-1.92,0-.14,0-.3-.09-.44a5.71,5.71,0,0,1-.28-1.08,2.75,2.75,0,0,0-.14-.49l-.18-.62c-.08-.24-.15-.48-.23-.72,0-.06-.07-.11-.07-.18a6.79,6.79,0,0,0-.38-1.26s0,0,0-.08c-.09-.39,0-.52.41-.52Z"/><path class="cls-3" d="M112.37,67.72V63.19c0-.1,0-.21,0-.31s.12-.32.34-.33h.42c.18,0,.25.07.28.25a1.55,1.55,0,0,1,0,.31c0,.85,0,1.7,0,2.55a1.05,1.05,0,0,0,0,.31.22.22,0,0,0,.34.12s0,0,0,0a1.8,1.8,0,0,1,.79-.46,2.61,2.61,0,0,1,2.25,0,3.5,3.5,0,0,1,.73.41,4,4,0,0,1,.71.87.28.28,0,0,1,.06.15,7.76,7.76,0,0,1,.18,1.16c0,1.42,0,2.83,0,4.25a.36.36,0,0,1-.37.41,2.78,2.78,0,0,1-.5,0,.28.28,0,0,1-.29-.25.82.82,0,0,1,0-.22V68.59a2.09,2.09,0,0,1,0-.25,1.82,1.82,0,0,0-.43-1.27,1.68,1.68,0,0,0-2-.51l-.2.09a2.25,2.25,0,0,0-1.21,1.16,1,1,0,0,0-.08.46c0,1.35,0,2.7,0,4v.17c0,.26-.11.35-.37.35h-.33c-.27,0-.4-.13-.4-.4s0-.36,0-.54V67.72Z"/><path class="cls-3" d="M148.18,70c0,.79.07,1.59.11,2.38,0,.32-.08.43-.4.43a2.26,2.26,0,0,0-.26,0,.49.49,0,0,1-.47-.24.39.39,0,0,0-.61-.12,3,3,0,0,1-1.85.54,2.47,2.47,0,0,1-1.89-.89,2.1,2.1,0,0,1-.21-.39.84.84,0,0,1,0-.17,2.4,2.4,0,0,1,0-1.38,2.26,2.26,0,0,1,1.12-1.36,4.79,4.79,0,0,1,1.49-.55,6.16,6.16,0,0,1,1.22-.12h.23a.32.32,0,0,0,.34-.36,1.33,1.33,0,0,0-.68-1.15,2.19,2.19,0,0,0-2.05-.07l-.5.17c-.06,0-.16,0-.19,0a1.3,1.3,0,0,1-.44-.57.24.24,0,0,1,.07-.2.87.87,0,0,1,.31-.23,5.15,5.15,0,0,1,2.33-.4,2,2,0,0,1,.67.17,1.19,1.19,0,0,0,.26.11,1.8,1.8,0,0,1,1,.78,3.38,3.38,0,0,1,.55,1.82c0,.6,0,1.2,0,1.8Zm-1.94-.84a3.62,3.62,0,0,0-1.48.26,2.36,2.36,0,0,0-.86.59,1.18,1.18,0,0,0-.15,1.26,1.35,1.35,0,0,0,1,.68,1.81,1.81,0,0,0,1.35-.39,2.35,2.35,0,0,0,1.05-2c0-.25-.08-.37-.33-.39S146.45,69.19,146.24,69.19Z"/><path class="cls-3" d="M103.72,67.91c0,.43.09.88.14,1.34a.45.45,0,0,0,0,.16,3.2,3.2,0,0,0,.9,1.4,5.7,5.7,0,0,0,.92.62,4.65,4.65,0,0,0,2.47.51,13,13,0,0,0,1.5-.24.64.64,0,0,0,.25-.12.26.26,0,0,1,.31,0,3.07,3.07,0,0,1,.34.38c.15.21.12.35-.11.49a1.54,1.54,0,0,1-.45.21,9.06,9.06,0,0,1-2.79.3c-.24,0-.47-.09-.71-.14a4,4,0,0,1-.5-.11c-.2-.06-.4-.14-.6-.22l-.15-.07A3.48,3.48,0,0,1,103.5,71c-.16-.25-.33-.5-.47-.76a3.92,3.92,0,0,1-.23-.6c0-.15-.07-.31-.11-.46a4.93,4.93,0,0,1,0-2.77c0-.12.06-.26.09-.38a1.09,1.09,0,0,1,.1-.32,3.86,3.86,0,0,1,.55-.94,1.8,1.8,0,0,0,.24-.35,3.38,3.38,0,0,1,1.38-1.14,3.55,3.55,0,0,1,1.23-.48c.25,0,.5-.14.76-.18a6.1,6.1,0,0,1,2.62.13c.17,0,.35.08.52.12a.44.44,0,0,1,.22.76.58.58,0,0,1-.75.24,4.89,4.89,0,0,0-1.91-.27,5,5,0,0,0-1.53.32,4.31,4.31,0,0,0-1.53,1,3.38,3.38,0,0,0-.58.82A5.41,5.41,0,0,0,103.72,67.91Z"/><path class="cls-3" d="M149.67,65.53h.06c.43,0,.57,0,.76.51.14.38.35.73.5,1.09s.33.88.5,1.31a.58.58,0,0,0,0,.14l.45,1c.09.21.19.42.26.64a1,1,0,0,0,.32.45c.13.11.23.08.32-.07a.43.43,0,0,0,0-.16,2.82,2.82,0,0,1,.28-.73c.18-.41.32-.83.48-1.25l.06-.16c.18-.36.36-.72.53-1.08l0-.1c.12-.4.25-.8.37-1.2s.17-.38.5-.39h.56a.26.26,0,0,1,.27.37.14.14,0,0,1,0,.06c-.16.34-.33.68-.5,1,0,.08-.06.18-.1.26s-.14.28-.21.42,0,0,0,0c-.17.39-.34.78-.5,1.18,0,0,0,.06,0,.08-.23.48-.32,1-.58,1.49s-.33.73-.49,1.09-.37.75-.55,1.13a1,1,0,0,0-.07.15,4.06,4.06,0,0,1-.64,1.08c-.29.38-.58.76-.89,1.12a2.09,2.09,0,0,1-.8.64,2.6,2.6,0,0,0-.45.28c-.23.15-.32.14-.48-.08a3.42,3.42,0,0,1-.33-.51c-.1-.2,0-.31.17-.39a4,4,0,0,0,1.89-1.53,4.18,4.18,0,0,0,.37-.65.79.79,0,0,0-.06-.81,1.45,1.45,0,0,1-.24-.59s0-.06,0-.08c-.17-.41-.35-.82-.53-1.23l0,0-.48-1.19a2.44,2.44,0,0,0-.1-.24l-.25-.58,0-.06-.54-1.07c0-.1-.08-.21-.13-.31s-.14-.3-.21-.45a1.17,1.17,0,0,1-.1-.26c0-.21.07-.31.28-.32h.31Z"/><path class="cls-3" d="M129.1,69c0,.66,0,1.31,0,2a1,1,0,0,0,.37.81.73.73,0,0,0,.47.17h.5a.44.44,0,0,1,.4.22c0,.1.13.18.19.28s.08.22-.06.3a2.26,2.26,0,0,1-2.25-.06,1.43,1.43,0,0,1-.68-.89,5.62,5.62,0,0,1-.18-1.53c0-1,0-2.1,0-3.15a1.21,1.21,0,0,0,0-.19.45.45,0,0,0-.49-.44l-.34,0a.28.28,0,0,1-.34-.25,1.1,1.1,0,0,1,0-.31c0-.35.13-.44.48-.43a1.62,1.62,0,0,0,.22,0,.45.45,0,0,0,.51-.5c0-.12,0-.24,0-.36a2.53,2.53,0,0,1,0-.28c0-.23.1-.33.33-.36s.41,0,.62,0a.22.22,0,0,1,.23.23c0,.16,0,.32,0,.47a3.85,3.85,0,0,0,0,.48c0,.27.15.35.42.35h1.23c.33,0,.42.07.45.4a.76.76,0,0,1,0,.3c-.05.23-.13.3-.37.29l-1.29,0c-.25,0-.37.06-.42.31,0,.1,0,.21,0,.31V69Z"/><path class="cls-3" d="M142,64.59a3,3,0,0,0-.83-1.11,2.42,2.42,0,0,0-.6-.35,3.59,3.59,0,0,0-.53-.24,6.27,6.27,0,0,0-1.67-.21c-.68,0-1.36.1-2,.15-.35,0-.41.1-.41.44v4.55h0V72.4a1,1,0,0,0,0,.17.28.28,0,0,0,.3.26h.43a.37.37,0,0,0,.36-.41c0-.78,0-1.56,0-2.34,0-.3,0-.59,0-.89s.11-.36.36-.38a2.16,2.16,0,0,1,.44,0,4.22,4.22,0,0,0,2-.27l.19,0a3.3,3.3,0,0,0,1-.53,3.9,3.9,0,0,0,.51-.4,2.5,2.5,0,0,0,.68-1.5A2.37,2.37,0,0,0,142,64.59Zm-1.15,1.84a2,2,0,0,1-.41.63,1.93,1.93,0,0,1-1.35.68,11.72,11.72,0,0,1-1.57,0c-.4,0-.5-.15-.51-.55s0-1,0-1.49h0V64.28c0-.3.08-.43.39-.49a4.33,4.33,0,0,1,1.39,0c.18,0,.35.06.53.08a1.82,1.82,0,0,1,.7.27,2.18,2.18,0,0,1,.66.58,1.11,1.11,0,0,1,.2.39A2.51,2.51,0,0,1,140.83,66.43Z"/><path class="cls-3" d="M96.09,69.3h2.27v0c.74,0,1.48,0,2.23,0,.32,0,.5-.13.49-.46a6.32,6.32,0,0,0-.1-1.23,3.35,3.35,0,0,0-.44-1.11,2.1,2.1,0,0,0-1.17-.91,2.44,2.44,0,0,1-.24-.1,2.73,2.73,0,0,0-.56-.15A3.53,3.53,0,0,0,96,66a2.54,2.54,0,0,0-1.07,1.28c0,.11-.1.2-.14.31a1.6,1.6,0,0,0-.12.37,6.79,6.79,0,0,0-.11,1.68,3.08,3.08,0,0,0,.37,1.57c.07.11.09.27.18.37s.35.36.52.55a2.42,2.42,0,0,0,.6.4,1.65,1.65,0,0,0,.67.28,1.32,1.32,0,0,1,.33.08,2.84,2.84,0,0,0,1,.15,11.25,11.25,0,0,0,2.08-.32.46.46,0,0,0,.16-.07.47.47,0,0,0,.25-.38.56.56,0,0,0-.69-.57c-.22,0-.43.1-.65.16A3.75,3.75,0,0,1,97,71.69a.75.75,0,0,1-.15-.09,2.75,2.75,0,0,1-1-1.11,1.53,1.53,0,0,1-.18-.81C95.69,69.4,95.81,69.3,96.09,69.3Zm-.18-1.57.41-.57a2.09,2.09,0,0,1,1.06-.7,1.7,1.7,0,0,1,1.41.1,1.74,1.74,0,0,1,.67.5,4.68,4.68,0,0,1,.44.71c.15.32,0,.56-.39.57H96.22c-.16,0-.33,0-.41-.16A.4.4,0,0,1,95.91,67.73Z"/><path class="cls-3" d="M125.84,72.33a5.14,5.14,0,0,1-.06-.55c0-.73,0-1.46-.07-2.19h0V68.32a3.41,3.41,0,0,0-.51-1.91,2.32,2.32,0,0,0-1.52-1,3.76,3.76,0,0,0-1.53,0,8.64,8.64,0,0,0-1.12.37,1.21,1.21,0,0,0-.3.2.27.27,0,0,0,0,.44,3.65,3.65,0,0,1,.24.31.21.21,0,0,0,.31.09,3.06,3.06,0,0,1,.49-.22,2.29,2.29,0,0,1,2.13,0,1.21,1.21,0,0,1,.67,1.14.32.32,0,0,1-.33.37H124a4.8,4.8,0,0,0-1.64.2,2.29,2.29,0,0,1-.37.12,2.43,2.43,0,0,0-1,.56,2.37,2.37,0,0,0-.87,1.31,2,2,0,0,0,.39,1.79,2.15,2.15,0,0,0,1,.73,2.51,2.51,0,0,0,1.6.07,3,3,0,0,0,1.11-.45c.21-.18.36-.11.53.12a.42.42,0,0,0,.34.22h.5a.23.23,0,0,0,.24-.2A1.61,1.61,0,0,0,125.84,72.33ZM124.59,70a1.41,1.41,0,0,1-.72,1.54,1.86,1.86,0,0,1-2,.27,1.14,1.14,0,0,1-.58-.9,1.4,1.4,0,0,1,.53-1.21.45.45,0,0,1,.14-.1,4.4,4.4,0,0,1,1.34-.39c.3,0,.6,0,.89,0s.43.12.43.43v.33h0Z"/><rect class="cls-3" x="106.96" y="43.66" width="10.48" height="0.94"/><rect class="cls-3" x="106.96" y="46.59" width="10.48" height="1.01"/><path class="cls-3" d="M107.22,55.28h10V49.6h-10Zm1-4.74h7.92v3.79h-7.92Z"/><path class="cls-3" d="M100.71,46.91l.56,1c.59-.88,1.21-1.9,1.8-3v11h1V42.81a31.26,31.26,0,0,0,1.55-4.06l-.94-.54A29.68,29.68,0,0,1,100.71,46.91Z"/><path class="cls-3" d="M138.8,46.91l.56,1c.59-.88,1.21-1.9,1.8-3v11h1V42.81a32.77,32.77,0,0,0,1.55-4.06l-.94-.54A29.68,29.68,0,0,1,138.8,46.91Z"/><path class="cls-3" d="M113,40.27h0v0l-.48-1-.49-1v0l-.94.54,0,0c.33.63.62,1.21.88,1.77a.58.58,0,0,1,.06.17h-6.16v1h12.61v-1h-6.16Z"/><polygon class="cls-3" points="91.49 39.88 90.55 39.88 90.55 43.18 88.78 43.18 88.78 38.48 87.83 38.48 87.83 43.18 85.99 43.18 85.99 39.88 85.05 39.88 85.05 44.12 91.49 44.12 91.49 39.88"/><rect class="cls-3" x="85.34" y="45.97" width="5.71" height="0.94"/><path class="cls-3" d="M92.3,51.88l-.45-.79,0,0L90.39,52.3V48.76H85.56v1.42c.14,2-.35,3.36-1.45,4.16h0l.52.91,0,0,0,0a5.43,5.43,0,0,0,1.91-4.72V49.7h2.88v2.1a2,2,0,0,1-.32,1.3v0l.57,1,0,0c.51-.41,1.37-1.15,2.57-2.2Z"/><path class="cls-3" d="M84.6,38.79l-.88-.5a15.71,15.71,0,0,1-3.32,4.63l.57,1A19.25,19.25,0,0,0,84.6,38.79Z"/><path class="cls-3" d="M84.5,43.62l-.91-.53v0a19.64,19.64,0,0,1-3.42,5.69v0l.52.9,0,0,0,0c.56-.65,1.1-1.34,1.62-2v8.17h.94V46.15a22.59,22.59,0,0,0,1.22-2.51Z"/><path class="cls-3" d="M94.22,41.71a20,20,0,0,0,.91-3.45h-1a23.41,23.41,0,0,1-2.74,7.3l.59,1,.44-.87.39-.72a19.57,19.57,0,0,0,1.53,6.06,15.69,15.69,0,0,1-3.16,3.69h0l.54.94,0,0,0,0a15.93,15.93,0,0,0,3.07-3.63,18.9,18.9,0,0,0,2.89,3.68l0,0,.56-1v0a15.32,15.32,0,0,1-2.93-3.65,21.14,21.14,0,0,0,2-8.49h1v-.94H94.22Zm2.2.94A21.63,21.63,0,0,1,94.91,50a26.25,26.25,0,0,1-1.37-6.46,7.72,7.72,0,0,1,.36-.85Z"/><path class="cls-3" d="M129.59,38.11h-1v2.54h-7.94v1h7.94V45h-5.14v.92a18.06,18.06,0,0,0,2.39,3.72A17.67,17.67,0,0,0,128.18,52,21,21,0,0,1,121,54.79l.59,1A24.8,24.8,0,0,0,129,52.63a19.55,19.55,0,0,0,7,3.16h0l.41-.79s-1.1-.29-2.77-.93a20.48,20.48,0,0,1-4-2.07,14.85,14.85,0,0,0,5-6.52L133.9,45h-4.31V41.65h8v-1h-8Zm3.95,7.76A12.67,12.67,0,0,1,129,51.35a15.49,15.49,0,0,1-4.54-5.48Z"/><path class="cls-3" d="M153.32,42.63V38.29h-1v4.34h-8.36v1h8.36v9.42c0,1-.63,1.5-1.83,1.5h-.59v1h.89a2.2,2.2,0,0,0,2.55-2.51V43.64H156v-1Z"/><path class="cls-3" d="M146.14,46.82c.62,1.21,1.31,2.68,2.06,4.39l1-.59-2.15-4.34Z"/></svg>